PathFileType	3	(X/Y/Z)	F:\ViconData\AntennenMessung\Messung1\Session1\ID08.trc
DataRate	CameraRate	NumFrames	NumMarkers	Units	OrigDataRate	OrigDataStartFrame	OrigNumFrames
120.0	120.0	6	70	mm	120.0	1086	1240	
Frame#	Time	Ashort			Along			Atop			A4			Bshort			Blong			Btop			B4			Cshort			Clong			Ctop			C4			Dshort			Dlong			Dtop			D4			Eshort			Elong			Etop			E4			Fshort			Flong			Ftop			F4			Gshort			Glong			Gtop			G4			Hshort			Hlong			Htop			H4			I1			I2			I3			I4			I5			WandAshort			WandAlong			WandAtop			WandA4			WandA15			WandBshort			WandB4			WandB5			WandBtop			WandBlong			WandCshort			WandClong			WandCtop			WandC4			WandC5			Acenter			Aantenna			Bcenter			Bantenna			Ccenter			Cantenna			Dcenter			Dantenna			Ecenter			Eantenna			Fcenter			Fantenna			Gcenter			Gantenna			Hcenter			Hantenna			Icenter			Iantenna			
		X1	Y1	Z1	X2	Y2	Z2	X3	Y3	Z3	X4	Y4	Z4	X5	Y5	Z5	X6	Y6	Z6	X7	Y7	Z7	X8	Y8	Z8	X9	Y9	Z9	X10	Y10	Z10	X11	Y11	Z11	X12	Y12	Z12	X13	Y13	Z13	X14	Y14	Z14	X15	Y15	Z15	X16	Y16	Z16	X17	Y17	Z17	X18	Y18	Z18	X19	Y19	Z19	X20	Y20	Z20	X21	Y21	Z21	X22	Y22	Z22	X23	Y23	Z23	X24	Y24	Z24	X25	Y25	Z25	X26	Y26	Z26	X27	Y27	Z27	X28	Y28	Z28	X29	Y29	Z29	X30	Y30	Z30	X31	Y31	Z31	X32	Y32	Z32	X33	Y33	Z33	X34	Y34	Z34	X35	Y35	Z35	X36	Y36	Z36	X37	Y37	Z37	X38	Y38	Z38	X39	Y39	Z39	X40	Y40	Z40	X41	Y41	Z41	X42	Y42	Z42	X43	Y43	Z43	X44	Y44	Z44	X45	Y45	Z45	X46	Y46	Z46	X47	Y47	Z47	X48	Y48	Z48	X49	Y49	Z49	X50	Y50	Z50	X51	Y51	Z51	X52	Y52	Z52	X53	Y53	Z53	X54	Y54	Z54	X55	Y55	Z55	X56	Y56	Z56	X57	Y57	Z57	X58	Y58	Z58	X59	Y59	Z59	X60	Y60	Z60	X61	Y61	Z61	X62	Y62	Z62	X63	Y63	Z63	X64	Y64	Z64	X65	Y65	Z65	X66	Y66	Z66	X67	Y67	Z67	X68	Y68	Z68	X69	Y69	Z69	X70	Y70	Z70	
1086	9.0416667	-1038.1775	214.51747	-1644.084	-1109.3657	203.94487	-1599.4106	-1063.5789	172.95082	-1625.816	-1054.135	262.14426	-1634.8345	-1352.9266	234.95117	1004.0801	-1281.3734	227.31752	1052.3627	-1322.8762	193.94794	1021.0048	-1284.4022	287.90839	1052.8591	814.08795	187.75723	1209.5262	892.81909	179.26457	1178.6359	844.54681	145.52512	1198.2806	861.4021	292.52628	1168.4344	1115.9319	209.9588	-1401.759	1056.3633	194.03043	-1460.0588	1095.2028	162.2796	-1423.8274	1069.8544	238.88354	-1425.8501	-1204.6035	1686.0647	-1563.069	-1129.1455	1688.2505	-1605.9343	-1173.0707	1724.3223	-1581.9327	-1133.7473	1581.0524	-1603.5797	-1239.5935	1699.1299	1119.4261	-1309.4615	1698.964	1071.9954	-1270.4365	1736.2902	1096.8868	-1245.5797	1592.8015	1110.6808	988.90436	1664.2389	1162.2759	957.35211	1700.506	1183.7847	922.11432	1662.403	1214.8646	939.84106	1659.4122	1159.9374	999.28137	1668.4747	-1579.3336	1059.0582	1670.2014	-1518.58	1025.1371	1708.041	-1551.0699	1059.4229	1672.1576	-1585.3281	392.99518	1170.2628	-32.888897	395.60199	1172.4205	-116.88728	396.32181	1208.4641	-69.438255	427.01791	1169.4615	-69.159172	346.55792	1174.657	-71.023132																																														-1068.5748	210.00298	-1625.0083	-1073.7852	248.6442	-1624.1661	-1321.6693	231.61649	1025.1718	-1320.428	270.36038	1029.4578	847.91376	184.10846	1196.2545	851.29956	222.90775	1194.217	1088.7917	202.70169	-1428.3208	1082.7192	240.99017	-1432.577	-1171.8451	1687.0137	-1581.678	-1170.5649	1648.0355	-1581.4119	-1271.12	1699.0549	1098.0239	-1271.8353	1660.0797	1099.2142	952.81915	1705.7162	1186.8746	972.77112	1733.8608	1168.687	1026.6804	1669.2661	-1551.4866	1028.2316	1630.2992	-1551.9054	394.16119	1171.2279	-70.461754	391.90289	1132.308	-71.53154
1087	9.05	-1038.1727	214.52808	-1644.0858	-1109.3629	204.01479	-1599.4452	-1064.2115	173.01537	-1625.3895	-1054.1104	262.16913	-1634.8372	-1352.8743	235.06693	1004.1031	-1281.319	227.3541	1052.3589	-1322.8423	194.01517	1020.8936	-1284.4355	287.8129	1052.8076	814.01074	187.72443	1209.6071	892.37598	178.61691	1179.0826	844.49231	145.47083	1198.2645	861.25867	292.44421	1168.4849	1115.9418	209.96062	-1401.7582	1056.3823	194.03543	-1460.0642	1095.21	162.33002	-1423.8351	1069.8507	238.91582	-1425.8992	-1204.6299	1686.0748	-1563.049	-1129.1644	1688.4011	-1606.4835	-1173.0723	1724.3391	-1581.951	-1134.0013	1581.0728	-1603.7039	-1239.5638	1699.0902	1119.4187	-1309.4443	1698.9523	1071.9866	-1270.4531	1736.3206	1096.8943	-1245.5897	1592.8044	1110.691	988.97949	1664.3046	1162.2743	957.40326	1700.498	1183.766	922.07068	1662.3002	1214.9167	939.83472	1659.374	1159.936	999.27844	1668.48	-1579.3372	1059.0596	1670.1932	-1518.5857	1025.1348	1708.0439	-1551.0664	1059.4302	1672.153	-1585.3331	393.01553	1170.2621	-32.905914	395.60654	1172.4254	-116.89013	396.33215	1208.4531	-69.448761	427.12091	1169.4071	-69.162048	346.55377	1174.6575	-71.019569																																														-1069.1921	209.94714	-1624.6346	-1074.4036	248.58932	-1623.8447	-1321.655	231.70184	1025.1567	-1320.4349	270.4357	1029.5385	848.17596	183.75377	1196.2991	851.90649	222.52388	1194.3087	1088.8069	202.7052	-1428.3219	1082.7346	240.99388	-1432.577	-1171.8901	1687.084	-1581.8925	-1170.6533	1648.1038	-1581.8312	-1271.1266	1699.028	1097.995	-1271.8306	1660.0513	1099.1455	952.81152	1705.7611	1186.8912	972.73987	1733.9353	1168.7233	1026.6787	1669.2651	-1551.4919	1028.2302	1630.2983	-1551.9197	394.17456	1171.2297	-70.474106	391.91861	1132.3098	-71.546173
1088	9.0583333	-1038.1896	214.56305	-1644.1105	-1109.3442	204.05611	-1599.4521	-1063.7863	172.37213	-1625.4385	-1054.1188	262.17581	-1634.8491	-1352.9027	234.99821	1004.0351	-1281.3719	227.31804	1052.386	-1322.8519	193.99777	1020.9557	-1284.5916	287.8454	1052.8536	814.06482	187.76973	1209.5559	892.38867	178.61917	1179.1636	844.54028	145.36794	1198.3286	861.30798	292.3681	1168.0679	1115.9316	209.95062	-1401.7632	1056.3831	194.03963	-1460.057	1095.2517	162.3806	-1423.8368	1069.8557	238.8549	-1425.8265	-1204.6083	1686.089	-1563.0408	-1129.1274	1688.2438	-1605.9236	-1173.0708	1724.3319	-1581.9377	-1133.7455	1581.0482	-1603.5491	-1239.3685	1698.8217	1119.3262	-1309.4865	1699.0244	1072.0134	-1270.4202	1736.2634	1096.8811	-1245.5791	1592.8213	1110.6947	988.97125	1664.3119	1162.2828	957.40625	1700.5183	1183.786	921.92139	1662.2499	1214.8621	939.86267	1659.3918	1159.9061	999.28662	1668.476	-1579.3246	1059.0634	1670.1979	-1518.5773	1025.1396	1708.0424	-1551.0748	1059.437	1672.1604	-1585.3264	392.98651	1170.2301	-32.913143	395.60745	1172.4226	-116.90381	396.32156	1208.4662	-69.449631	427.10477	1169.3975	-69.149811	346.54288	1174.6865	-71.037354																																														-1068.9484	210.02107	-1624.8053	-1074.2454	248.65422	-1624.1559	-1321.6514	231.64276	1025.1592	-1320.416	270.38245	1029.4851	848.23859	183.77719	1196.2953	851.97131	222.54387	1194.2429	1088.8344	202.71045	-1428.2893	1082.7421	240.99901	-1432.5165	-1171.8448	1687.0243	-1581.6545	-1170.5641	1648.0464	-1581.3585	-1271.1865	1698.9136	1097.8567	-1271.9861	1659.9351	1098.8746	952.81616	1705.7832	1186.9128	972.81244	1733.9597	1168.8232	1026.6774	1669.2649	-1551.4889	1028.2227	1630.2977	-1551.905	394.15906	1171.2111	-70.489624	391.89996	1132.2916	-71.576073
1089	9.0666667	-1038.1787	214.5451	-1644.0989	-1109.3586	203.98508	-1599.4237	-1064.2279	173.00275	-1625.3723	-1054.1223	262.14407	-1634.926	-1352.8534	234.99529	1004.0593	-1281.3015	227.38486	1052.4025	-1322.8073	194.01187	1020.9479	-1284.5342	287.80692	1052.9385	814.08356	187.66321	1209.3984	892.35791	178.48398	1179.1865	844.59198	145.43297	1198.3733	861.32263	292.3804	1168.2848	1115.9302	209.94934	-1401.7375	1056.3843	194.02048	-1460.0422	1095.2355	162.41147	-1423.8381	1069.8129	238.81958	-1425.8385	-1204.6332	1686.0822	-1563.026	-1129.1024	1688.2562	-1605.9436	-1173.0771	1724.3334	-1581.9402	-1134.0138	1581.0536	-1603.6837	-1239.5428	1699.064	1119.4076	-1309.4714	1698.9886	1072.0037	-1270.429	1736.2913	1096.8812	-1245.585	1592.7745	1110.679	988.94653	1664.2675	1162.2908	957.4408	1700.4803	1183.7969	922.01672	1662.3914	1214.8972	939.85657	1659.4059	1159.9017	999.30432	1668.4528	-1579.3036	1059.0641	1670.2065	-1518.5818	1025.1381	1708.0353	-1551.0653	1059.4344	1672.1613	-1585.3323	392.99692	1170.2644	-32.901005	395.60028	1172.4146	-116.90114	396.32916	1208.4436	-69.432106	427.08981	1169.3717	-69.145035	346.55402	1174.6729	-71.026939																																														-1069.2294	209.93851	-1624.6102	-1074.4613	248.57774	-1623.813	-1321.6393	231.67528	1025.1487	-1320.4381	270.41656	1029.4696	848.24121	183.65753	1196.2144	851.94183	222.41978	1194.0249	1088.8154	202.696	-1428.287	1082.7137	240.98294	-1432.5155	-1171.8427	1687.0259	-1581.6578	-1170.5532	1648.0483	-1581.3629	-1271.1394	1699.0299	1097.9885	-1271.8826	1660.0542	1099.1466	952.82166	1705.7894	1186.9498	972.80768	1733.9458	1168.8179	1026.692	1669.2565	-1551.4749	1028.2537	1630.2898	-1551.8864	394.16068	1171.2255	-70.451981	391.89316	1132.3062	-71.518478
1090	9.075	-1038.2021	214.49617	-1644.0657	-1109.3162	204.09605	-1599.4659	-1063.7198	172.9687	-1625.7135	-1054.1246	262.14404	-1634.9202	-1352.7986	235.1391	1004.0505	-1281.3448	227.32942	1052.4452	-1322.8418	193.98224	1020.968	-1284.5007	287.89508	1052.8967	814.12762	187.77095	1209.504	892.43549	178.62955	1179.1064	844.57184	145.41037	1198.3707	861.21375	292.63727	1168.5564	1115.9233	209.95	-1401.7546	1056.3353	194.08414	-1460.1428	1095.1437	162.32451	-1423.8149	1069.8353	238.8756	-1425.8595	-1204.6433	1686.0923	-1563.0065	-1129.1497	1688.3763	-1606.4683	-1173.0747	1724.3392	-1581.944	-1133.7463	1581.0485	-1603.5592	-1239.592	1699.109	1119.4235	-1309.3082	1698.7314	1071.9058	-1270.4722	1736.3345	1096.8976	-1245.5818	1592.7902	1110.687	988.97723	1664.2988	1162.2747	957.37421	1700.4797	1183.7787	922.03076	1662.3177	1214.8835	939.85919	1659.4218	1159.9441	999.28326	1668.4714	-1579.319	1058.922	1670.0303	-1518.6106	1025.1367	1708.043	-1551.069	1059.4207	1672.1561	-1585.3248	392.98599	1170.2441	-32.89769	395.60449	1172.4043	-116.90039	396.34174	1208.4575	-69.445724	427.09445	1169.3772	-69.15834	346.54498	1174.6517	-71.017929																																														-1068.6681	210.04063	-1624.9586	-1073.8269	248.68993	-1624.1718	-1321.5791	231.7269	1025.1948	-1320.2834	270.46323	1029.533	848.23444	183.78941	1196.2644	851.93396	222.55521	1194.1368	1088.8058	202.72971	-1428.326	1082.7986	241.02634	-1432.6018	-1171.8979	1687.0829	-1581.8579	-1170.6669	1648.1024	-1581.7679	-1271.0219	1698.9387	1098.0012	-1271.5947	1659.9598	1099.1515	952.75262	1705.7705	1186.9231	972.68384	1733.9609	1168.7837	1026.6017	1669.1854	-1551.5105	1028.0709	1630.2157	-1551.9532	394.15723	1171.2103	-70.471634	391.87469	1132.2919	-71.543579
1091	9.0833333	-1038.1936	214.49393	-1644.0916	-1109.3444	203.96909	-1599.4095	-1064.2346	173.03316	-1625.3145	-1054.1306	262.15973	-1634.8375	-1352.9231	235.07436	1004.1082	-1281.36	227.28194	1052.3694	-1322.8088	194.06557	1020.9223	-1284.5465	287.79413	1052.9482	814.05157	187.7063	1209.4742	892.38593	178.64322	1179.0623	844.573	145.44234	1198.3325	861.35999	292.50726	1168.4885	1115.856	209.63255	-1401.5939	1056.3909	194.03114	-1460.0448	1095.2234	162.36629	-1423.8514	1069.8585	238.8811	-1425.8375	-1204.6527	1686.1019	-1562.9944	-1129.1272	1688.2815	-1605.9749	-1173.0596	1724.3319	-1581.9421	-1133.7534	1581.0557	-1603.562	-1239.5259	1699.0409	1119.3997	-1309.4158	1698.9092	1071.9753	-1270.4229	1736.2729	1096.8806	-1245.568	1592.7446	1110.6725	988.98279	1664.3121	1162.2821	957.36597	1700.5173	1183.7969	921.83582	1662.3478	1214.814	939.86359	1659.408	1159.936	999.29224	1668.4823	-1579.33	1058.9438	1670.0471	-1518.6078	1025.1348	1708.0464	-1551.0675	1059.4332	1672.157	-1585.3286	392.98575	1170.25	-32.887886	395.6037	1172.4099	-116.90679	396.3403	1208.4543	-69.439095	427.03702	1169.4719	-69.173141	346.54144	1174.6553	-71.020813																																														-1069.2373	209.90182	-1624.5963	-1074.4803	248.54048	-1623.8436	-1321.6145	231.66519	1025.2222	-1320.3843	270.39334	1029.6512	848.18646	183.75696	1196.2218	851.84283	222.5264	1194.0861	1088.8726	202.55313	-1428.1169	1082.818	240.86511	-1432.1833	-1171.8304	1687.0491	-1581.6729	-1170.5453	1648.0713	-1581.3915	-1271.0966	1698.9813	1097.9772	-1271.8009	1660.0045	1099.1234	952.7063	1705.8533	1186.9678	972.7135	1734.0492	1168.9207	1026.6133	1669.199	-1551.5186	1028.0962	1630.2297	-1551.9712	394.15659	1171.2159	-70.464439	391.87433	1132.2975	-71.536049
